<?xml version="1.0" encoding="UTF-8" standalone="no"?>
<svg
   xmlns:dc="http://purl.org/dc/elements/1.1/"
   xmlns:cc="http://creativecommons.org/ns#"
   xmlns:rdf="http://www.w3.org/1999/02/22-rdf-syntax-ns#"
   xmlns:svg="http://www.w3.org/2000/svg"
   xmlns="http://www.w3.org/2000/svg"
   id="svg849"
   version="1.1"
   viewBox="0 0 150.07167 39.47583"
   height="39.47583mm"
   width="150.07167mm">
  <defs
     id="defs843" />
  <metadata
     id="metadata846">
    <rdf:RDF>
      <cc:Work
         rdf:about="">
        <dc:format>image/svg+xml</dc:format>
        <dc:type
           rdf:resource="http://purl.org/dc/dcmitype/StillImage" />
        <dc:title></dc:title>
      </cc:Work>
    </rdf:RDF>
  </metadata>
  <g
     transform="translate(-12.654642,-68.619229)"
     id="layer1">
    <path
       id="path1667"
       d="m 12.6811,68.645687 h 26.458334 l 3.96875,3.70416 v 11.90626 l -3.96875,2.645831 H 33.054019 L 48.929017,101.45402 H 36.493602 L 20.6186,86.901938 v 14.552082 h -7.9375 z"
       style="fill:none;stroke:#000000;stroke-width:0.05291667;stroke-linecap:butt;stroke-linejoin:miter;stroke-miterlimit:4;stroke-dasharray:none;stroke-opacity:1" />
    <path
       id="path1669"
       d="m 20.6186,74.201927 v 7.67292 h 14.552084 v -7.67292 z"
       style="fill:none;stroke:#000000;stroke-width:0.05291667;stroke-linecap:butt;stroke-linejoin:miter;stroke-miterlimit:4;stroke-dasharray:none;stroke-opacity:1" />
    <path
       id="path1671"
       d="M 54.74985,79.229017 V 94.574848 H 66.391514 V 79.229017 Z"
       style="fill:none;stroke:#000000;stroke-width:0.03654546;stroke-linecap:butt;stroke-linejoin:miter;stroke-miterlimit:4;stroke-dasharray:none;stroke-opacity:1" />
    <path
       id="path1673"
       d="M 70.095684,72.349847 H 51.57485 l -3.96875,3.96875 v 21.166671 l 3.96875,3.968752 h 18.520834 l 3.968752,-3.968752 V 76.318597 Z"
       style="fill:none;stroke:#000000;stroke-width:0.05291667;stroke-linecap:butt;stroke-linejoin:miter;stroke-miterlimit:4;stroke-dasharray:none;stroke-opacity:1" />
    <path
       id="path1675"
       d="m 78.562356,76.318597 v 19.72058 l 3.96875,5.414843 H 101.31651 V 94.574848 H 87.293606 V 79.229017 h 14.022904 v -6.87917 H 82.531106 Z"
       style="fill:none;stroke:#000000;stroke-width:0.05291667;stroke-linecap:butt;stroke-linejoin:miter;stroke-miterlimit:4;stroke-dasharray:none;stroke-opacity:1" />
    <path
       id="path1677"
       d="m 105.81443,72.349847 v 29.104173 h 8.73125 v -9.525003 l 8.73125,9.525003 h 12.17083 l -10.94429,-10.583332 7.50471,-11.112501 v -7.40834 h -8.73125 v 3.70417 l -8.73125,13.02003 v -16.7242 z"
       style="fill:none;stroke:#000000;stroke-width:0.05291667;stroke-linecap:butt;stroke-linejoin:miter;stroke-miterlimit:4;stroke-dasharray:none;stroke-opacity:1" />
    <path
       id="path1679"
       d="m 153.9686,101.45402 8.73125,-7.937503 v -21.16667 h -8.73125 v 15.804881 l -4.16336,5.361789 -4.56789,-5.629009 V 72.349847 h -8.73125 v 21.16667 l 8.73125,7.937503 v 6.61458 h 8.73125 z"
       style="fill:none;stroke:#000000;stroke-width:0.05291667;stroke-linecap:butt;stroke-linejoin:miter;stroke-miterlimit:4;stroke-dasharray:none;stroke-opacity:1" />
  </g>
</svg>
